{"title":"The Biggest Loser Australia Season 4 (2009)","uid":5446950,"size":31948623935,"categoryP":"video","categoryS":"tv_shows","magnet":"?xt=urn:btih:ab890e07939b375181ad1d1c1f42373e310c7c4f&amp;dn=The+Biggest+Loser+Australia+Season+4+%282009%29&amp;tr=udp%3A%2F%2Ftracker.openbittorrent.com%3A80&amp;tr=udp%3A%2F%2Fopen.demonii.com%3A1337&amp;tr=udp%3A%2F%2Ftracker.coppersurfer.tk%3A6969&amp;tr=udp%3A%2F%2Fexodus.desync.com%3A6969","seeders":0,"leechers":2,"uploader":"pixiesmiles","files":-1,"time":1269050921,"description":"This is season 4 of The Biggest Loser Australia (2009).... COMPLETE with all 74 episodes. Season 5 (AU), and Season 9 (US) are being broadcast right now... so if you're one of those people who just can't get enough of The biggest Loser, here you go! \n\nI am an American, and had only seen the US version of this show, so I was surprised to see the AU version had so many episodes. If you are thinking the same.. not to worry, the Australian episodes are broken up, so instead of a single very long episode, they have shorter episodes that air much more often. I think they air between 5 to 7 episodes/week (please correct me if I'm wrong on this). \n\nI am not the original creator of this torrent (thank you, to the person who is!), but thought I would share the love. :o)\n\nThese are very good quality HDTV rips. As of today, I have watched the first 6 episodes and found no issues whatsoever. \n\nEnjoy!\n\n-=Sample Media Info=-\n\nFormat                           : AVI\nFormat/Info                      : Audio Video Interleave\nFile size                        : 500 MiB\nDuration                         : 47mn 4s\nOverall bit rate                 : 1 485 Kbps\nWriting application              : VirtualDubMod 1.5.4.1 (build 2178/release)\nWriting library                  : VirtualDubMod build 2178/release\n\nVideo\nID                               : 0\nFormat                           : MPEG-4 Visual\nFormat profile                   : Advanced Simple@L5\nFormat settings, BVOP            : Yes\nFormat settings, QPel            : No\nFormat settings, GMC             : No warppoints\nFormat settings, Matrix          : Custom\nCodec ID                         : XVID\nCodec ID/Hint                    : XviD\nDuration                         : 47mn 4s\nBit rate                         : 1 361 Kbps\nWidth                            : 624 pixels\nHeight                           : 352 pixels\nDisplay aspect ratio             : 16:9\nFrame rate                       : 25.000 fps\nResolution                       : 8 bits\nColorimetry                      : 4:2:0\nScan type                        : Progressive\nBits/(Pixel*Frame)               : 0.248\nStream size                      : 458 MiB (92%)\nWriting library                  : XviD 1.2.1 (UTC 2008-12-04)\n\nAudio\nID                               : 1\nFormat                           : MPEG Audio\nFormat version                   : Version 1\nFormat profile                   : Layer 3\nMode                             : Joint stereo\nFormat_Settings_ModeExtension    : MS Stereo\nCodec ID                         : 55\nCodec ID/Hint                    : MP3\nDuration                         : 47mn 4s\nBit rate mode                    : Variable\nBit rate                         : 111 Kbps\nNominal bit rate                 : 128 Kbps\nChannel(s)                       : 2 channels\nSampling rate                    : 48.0 KHz\nStream size                      : 37.3 MiB (7%)\nAlignment                        : Aligned on interleaves\nInterleave, duration             : 24 ms (0.60 video frame)\nInterleave, preload duration     : 346 ms\nWriting library                  : LAME3.98r\n\n","torrent":{"xt":"urn:btih:ab890e07939b375181ad1d1c1f42373e310c7c4f","amp;dn":"The+Biggest+Loser+Australia+Season+4+%282009%29","amp;tr":["udp%3A%2F%2Ftracker.openbittorrent.com%3A80","udp%3A%2F%2Fopen.demonii.com%3A1337","udp%3A%2F%2Ftracker.coppersurfer.tk%3A6969","udp%3A%2F%2Fexodus.desync.com%3A6969"],"infoHash":"ab890e07939b375181ad1d1c1f42373e310c7c4f","infoHashBuffer":{"type":"Buffer","data":[171,137,14,7,147,155,55,81,129,173,29,28,31,66,55,62,49,12,124,79]},"announce":[],"urlList":[]}}